<mxfile host="app.diagrams.net" agent="Mozilla/5.0 (Macintosh; Intel Mac OS X 10_15_7) AppleWebKit/605.1.15 (KHTML, like Gecko) Version/17.6 Safari/605.1.15" version="24.7.14">
  <diagram id="prtHgNgQTEPvFCAcTncT" name="Page-1">
    <mxGraphModel dx="795" dy="539" grid="1" gridSize="10" guides="1" tooltips="1" connect="1" arrows="1" fold="1" page="1" pageScale="1" pageWidth="827" pageHeight="1169" math="0" shadow="0">
      <root>
        <mxCell id="0" />
        <mxCell id="1" parent="0" />
        <mxCell id="vTuwC1mZ4MMaVHK7DtLy-5" value="Simulation" style="swimlane;childLayout=stackLayout;resizeParent=1;resizeParentMax=0;startSize=20;html=1;swimlaneFillColor=default;fillColor=#b1ddf0;strokeColor=#10739e;" parent="1" vertex="1">
          <mxGeometry x="114" y="60" width="600" height="430" as="geometry" />
        </mxCell>
        <mxCell id="vTuwC1mZ4MMaVHK7DtLy-6" value="Abstract" style="swimlane;startSize=20;html=1;fillColor=#d0cee2;strokeColor=#56517e;" parent="vTuwC1mZ4MMaVHK7DtLy-5" vertex="1">
          <mxGeometry y="20" width="200" height="410" as="geometry" />
        </mxCell>
        <mxCell id="vTuwC1mZ4MMaVHK7DtLy-10" value="Producer" style="rounded=1;whiteSpace=wrap;html=1;fillColor=#dae8fc;strokeColor=#6c8ebf;" parent="vTuwC1mZ4MMaVHK7DtLy-6" vertex="1">
          <mxGeometry x="40" y="50" width="120" height="60" as="geometry" />
        </mxCell>
        <mxCell id="vTuwC1mZ4MMaVHK7DtLy-11" value="Consumer" style="rounded=1;whiteSpace=wrap;html=1;fillColor=#dae8fc;strokeColor=#6c8ebf;" parent="vTuwC1mZ4MMaVHK7DtLy-6" vertex="1">
          <mxGeometry x="40" y="150" width="120" height="60" as="geometry" />
        </mxCell>
        <mxCell id="vTuwC1mZ4MMaVHK7DtLy-12" value="Storage" style="rounded=1;whiteSpace=wrap;html=1;fillColor=#dae8fc;strokeColor=#6c8ebf;" parent="vTuwC1mZ4MMaVHK7DtLy-6" vertex="1">
          <mxGeometry x="40" y="240" width="120" height="60" as="geometry" />
        </mxCell>
        <mxCell id="vTuwC1mZ4MMaVHK7DtLy-13" value="External" style="rounded=1;whiteSpace=wrap;html=1;fillColor=#dae8fc;strokeColor=#6c8ebf;" parent="vTuwC1mZ4MMaVHK7DtLy-6" vertex="1">
          <mxGeometry x="40" y="330" width="120" height="60" as="geometry" />
        </mxCell>
        <mxCell id="vTuwC1mZ4MMaVHK7DtLy-7" value="Concrete" style="swimlane;startSize=20;html=1;fillColor=#d0cee2;strokeColor=#56517e;" parent="vTuwC1mZ4MMaVHK7DtLy-5" vertex="1">
          <mxGeometry x="200" y="20" width="200" height="410" as="geometry" />
        </mxCell>
        <mxCell id="vTuwC1mZ4MMaVHK7DtLy-14" value="Battery" style="rounded=1;whiteSpace=wrap;html=1;fillColor=#fff2cc;strokeColor=#d6b656;" parent="vTuwC1mZ4MMaVHK7DtLy-7" vertex="1">
          <mxGeometry x="40" y="240" width="120" height="30" as="geometry" />
        </mxCell>
        <mxCell id="vTuwC1mZ4MMaVHK7DtLy-15" value="Solar Arrays" style="rounded=1;whiteSpace=wrap;html=1;fillColor=#fff2cc;strokeColor=#d6b656;" parent="vTuwC1mZ4MMaVHK7DtLy-7" vertex="1">
          <mxGeometry x="40" y="40" width="120" height="30" as="geometry" />
        </mxCell>
        <mxCell id="vTuwC1mZ4MMaVHK7DtLy-19" value="Regen" style="rounded=1;whiteSpace=wrap;html=1;fillColor=#fff2cc;strokeColor=#d6b656;" parent="vTuwC1mZ4MMaVHK7DtLy-7" vertex="1">
          <mxGeometry x="40" y="90" width="120" height="30" as="geometry" />
        </mxCell>
        <mxCell id="vTuwC1mZ4MMaVHK7DtLy-24" value="Motor" style="rounded=1;whiteSpace=wrap;html=1;fillColor=#fff2cc;strokeColor=#d6b656;" parent="vTuwC1mZ4MMaVHK7DtLy-7" vertex="1">
          <mxGeometry x="40" y="140" width="120" height="30" as="geometry" />
        </mxCell>
        <mxCell id="vTuwC1mZ4MMaVHK7DtLy-30" value="LVS" style="rounded=1;whiteSpace=wrap;html=1;fillColor=#fff2cc;strokeColor=#d6b656;" parent="vTuwC1mZ4MMaVHK7DtLy-7" vertex="1">
          <mxGeometry x="40" y="190" width="120" height="30" as="geometry" />
        </mxCell>
        <mxCell id="vTuwC1mZ4MMaVHK7DtLy-46" value="Meteorology" style="rounded=1;whiteSpace=wrap;html=1;fillColor=#fff2cc;strokeColor=#d6b656;" parent="vTuwC1mZ4MMaVHK7DtLy-7" vertex="1">
          <mxGeometry x="40" y="345" width="120" height="30" as="geometry" />
        </mxCell>
        <mxCell id="vTuwC1mZ4MMaVHK7DtLy-45" value="GIS" style="rounded=1;whiteSpace=wrap;html=1;fillColor=#fff2cc;strokeColor=#d6b656;" parent="vTuwC1mZ4MMaVHK7DtLy-7" vertex="1">
          <mxGeometry x="40" y="290" width="120" height="30" as="geometry" />
        </mxCell>
        <mxCell id="vTuwC1mZ4MMaVHK7DtLy-8" value="Modules" style="swimlane;startSize=20;html=1;fillColor=#d0cee2;strokeColor=#56517e;" parent="vTuwC1mZ4MMaVHK7DtLy-5" vertex="1">
          <mxGeometry x="400" y="20" width="200" height="410" as="geometry" />
        </mxCell>
        <mxCell id="vTuwC1mZ4MMaVHK7DtLy-55" value="Environment" style="rounded=1;whiteSpace=wrap;html=1;fillColor=#f8cecc;strokeColor=#b85450;" parent="vTuwC1mZ4MMaVHK7DtLy-8" vertex="1">
          <mxGeometry x="40" y="275" width="120" height="60" as="geometry" />
        </mxCell>
        <mxCell id="vTuwC1mZ4MMaVHK7DtLy-56" value="Car" style="rounded=1;whiteSpace=wrap;html=1;fillColor=#f8cecc;strokeColor=#b85450;" parent="vTuwC1mZ4MMaVHK7DtLy-8" vertex="1">
          <mxGeometry x="40" y="75" width="120" height="60" as="geometry" />
        </mxCell>
        <mxCell id="vTuwC1mZ4MMaVHK7DtLy-47" style="edgeStyle=orthogonalEdgeStyle;rounded=1;orthogonalLoop=1;jettySize=auto;html=1;exitX=1;exitY=0.5;exitDx=0;exitDy=0;entryX=0;entryY=0.5;entryDx=0;entryDy=0;strokeWidth=2;endArrow=classic;endFill=1;startArrow=oval;startFill=0;" parent="vTuwC1mZ4MMaVHK7DtLy-5" source="vTuwC1mZ4MMaVHK7DtLy-10" target="vTuwC1mZ4MMaVHK7DtLy-15" edge="1">
          <mxGeometry relative="1" as="geometry">
            <Array as="points">
              <mxPoint x="186" y="100" />
              <mxPoint x="186" y="75" />
            </Array>
          </mxGeometry>
        </mxCell>
        <mxCell id="vTuwC1mZ4MMaVHK7DtLy-48" style="edgeStyle=orthogonalEdgeStyle;rounded=1;orthogonalLoop=1;jettySize=auto;html=1;exitX=1;exitY=0.5;exitDx=0;exitDy=0;entryX=0;entryY=0.5;entryDx=0;entryDy=0;strokeWidth=2;endArrow=classic;endFill=1;startArrow=oval;startFill=0;" parent="vTuwC1mZ4MMaVHK7DtLy-5" source="vTuwC1mZ4MMaVHK7DtLy-10" target="vTuwC1mZ4MMaVHK7DtLy-19" edge="1">
          <mxGeometry relative="1" as="geometry">
            <Array as="points">
              <mxPoint x="186" y="100" />
              <mxPoint x="186" y="125" />
            </Array>
          </mxGeometry>
        </mxCell>
        <mxCell id="vTuwC1mZ4MMaVHK7DtLy-49" style="edgeStyle=orthogonalEdgeStyle;rounded=1;orthogonalLoop=1;jettySize=auto;html=1;exitX=1;exitY=0.5;exitDx=0;exitDy=0;entryX=0;entryY=0.5;entryDx=0;entryDy=0;strokeWidth=2;endArrow=classic;endFill=1;startArrow=oval;startFill=0;" parent="vTuwC1mZ4MMaVHK7DtLy-5" source="vTuwC1mZ4MMaVHK7DtLy-11" target="vTuwC1mZ4MMaVHK7DtLy-24" edge="1">
          <mxGeometry relative="1" as="geometry">
            <Array as="points">
              <mxPoint x="186" y="200" />
              <mxPoint x="186" y="175" />
            </Array>
          </mxGeometry>
        </mxCell>
        <mxCell id="vTuwC1mZ4MMaVHK7DtLy-50" style="edgeStyle=orthogonalEdgeStyle;rounded=1;orthogonalLoop=1;jettySize=auto;html=1;exitX=1;exitY=0.5;exitDx=0;exitDy=0;entryX=0;entryY=0.5;entryDx=0;entryDy=0;strokeWidth=2;endArrow=classic;endFill=1;startArrow=oval;startFill=0;" parent="vTuwC1mZ4MMaVHK7DtLy-5" source="vTuwC1mZ4MMaVHK7DtLy-11" target="vTuwC1mZ4MMaVHK7DtLy-30" edge="1">
          <mxGeometry relative="1" as="geometry">
            <Array as="points">
              <mxPoint x="186" y="200" />
              <mxPoint x="186" y="225" />
            </Array>
          </mxGeometry>
        </mxCell>
        <mxCell id="vTuwC1mZ4MMaVHK7DtLy-51" style="edgeStyle=orthogonalEdgeStyle;rounded=1;orthogonalLoop=1;jettySize=auto;html=1;exitX=1;exitY=0.5;exitDx=0;exitDy=0;entryX=0;entryY=0.5;entryDx=0;entryDy=0;strokeWidth=2;endArrow=classic;endFill=1;startArrow=oval;startFill=0;" parent="vTuwC1mZ4MMaVHK7DtLy-5" source="vTuwC1mZ4MMaVHK7DtLy-12" target="vTuwC1mZ4MMaVHK7DtLy-14" edge="1">
          <mxGeometry relative="1" as="geometry">
            <Array as="points">
              <mxPoint x="186" y="290" />
              <mxPoint x="186" y="275" />
            </Array>
          </mxGeometry>
        </mxCell>
        <mxCell id="vTuwC1mZ4MMaVHK7DtLy-53" style="edgeStyle=orthogonalEdgeStyle;rounded=1;orthogonalLoop=1;jettySize=auto;html=1;exitX=1;exitY=0.5;exitDx=0;exitDy=0;strokeWidth=2;endArrow=classic;endFill=1;startArrow=oval;startFill=0;" parent="vTuwC1mZ4MMaVHK7DtLy-5" source="vTuwC1mZ4MMaVHK7DtLy-13" target="vTuwC1mZ4MMaVHK7DtLy-45" edge="1">
          <mxGeometry relative="1" as="geometry">
            <Array as="points">
              <mxPoint x="186" y="380" />
              <mxPoint x="186" y="325" />
            </Array>
          </mxGeometry>
        </mxCell>
        <mxCell id="vTuwC1mZ4MMaVHK7DtLy-54" style="edgeStyle=orthogonalEdgeStyle;rounded=1;orthogonalLoop=1;jettySize=auto;html=1;exitX=1;exitY=0.5;exitDx=0;exitDy=0;entryX=0;entryY=0.5;entryDx=0;entryDy=0;strokeWidth=2;endArrow=classic;endFill=1;startArrow=oval;startFill=0;" parent="vTuwC1mZ4MMaVHK7DtLy-5" source="vTuwC1mZ4MMaVHK7DtLy-13" target="vTuwC1mZ4MMaVHK7DtLy-46" edge="1">
          <mxGeometry relative="1" as="geometry" />
        </mxCell>
        <mxCell id="vTuwC1mZ4MMaVHK7DtLy-61" style="edgeStyle=orthogonalEdgeStyle;rounded=1;orthogonalLoop=1;jettySize=auto;html=1;exitX=1;exitY=0.5;exitDx=0;exitDy=0;entryX=0;entryY=0.25;entryDx=0;entryDy=0;strokeWidth=2;endArrow=classic;endFill=1;startArrow=oval;startFill=0;" parent="vTuwC1mZ4MMaVHK7DtLy-5" source="vTuwC1mZ4MMaVHK7DtLy-15" target="vTuwC1mZ4MMaVHK7DtLy-56" edge="1">
          <mxGeometry relative="1" as="geometry">
            <Array as="points">
              <mxPoint x="396" y="75" />
              <mxPoint x="396" y="110" />
            </Array>
          </mxGeometry>
        </mxCell>
        <mxCell id="vTuwC1mZ4MMaVHK7DtLy-62" style="edgeStyle=orthogonalEdgeStyle;rounded=1;orthogonalLoop=1;jettySize=auto;html=1;exitX=1;exitY=0.5;exitDx=0;exitDy=0;entryX=0;entryY=0.5;entryDx=0;entryDy=0;strokeWidth=2;endArrow=classic;endFill=1;startArrow=oval;startFill=0;" parent="vTuwC1mZ4MMaVHK7DtLy-5" source="vTuwC1mZ4MMaVHK7DtLy-19" target="vTuwC1mZ4MMaVHK7DtLy-56" edge="1">
          <mxGeometry relative="1" as="geometry" />
        </mxCell>
        <mxCell id="vTuwC1mZ4MMaVHK7DtLy-63" style="edgeStyle=orthogonalEdgeStyle;rounded=1;orthogonalLoop=1;jettySize=auto;html=1;exitX=1;exitY=0.5;exitDx=0;exitDy=0;entryX=0;entryY=0.75;entryDx=0;entryDy=0;strokeWidth=2;endArrow=classic;endFill=1;startArrow=oval;startFill=0;" parent="vTuwC1mZ4MMaVHK7DtLy-5" source="vTuwC1mZ4MMaVHK7DtLy-24" target="vTuwC1mZ4MMaVHK7DtLy-56" edge="1">
          <mxGeometry relative="1" as="geometry">
            <Array as="points">
              <mxPoint x="396" y="175" />
              <mxPoint x="396" y="140" />
            </Array>
          </mxGeometry>
        </mxCell>
        <mxCell id="vTuwC1mZ4MMaVHK7DtLy-64" style="edgeStyle=orthogonalEdgeStyle;rounded=1;orthogonalLoop=1;jettySize=auto;html=1;exitX=1;exitY=0.5;exitDx=0;exitDy=0;entryX=0.25;entryY=1;entryDx=0;entryDy=0;strokeWidth=2;endArrow=classic;endFill=1;startArrow=oval;startFill=0;" parent="vTuwC1mZ4MMaVHK7DtLy-5" source="vTuwC1mZ4MMaVHK7DtLy-30" target="vTuwC1mZ4MMaVHK7DtLy-56" edge="1">
          <mxGeometry relative="1" as="geometry" />
        </mxCell>
        <mxCell id="vTuwC1mZ4MMaVHK7DtLy-65" style="edgeStyle=orthogonalEdgeStyle;rounded=1;orthogonalLoop=1;jettySize=auto;html=1;exitX=1;exitY=0.5;exitDx=0;exitDy=0;entryX=0.75;entryY=1;entryDx=0;entryDy=0;strokeWidth=2;endArrow=classic;endFill=1;startArrow=oval;startFill=0;" parent="vTuwC1mZ4MMaVHK7DtLy-5" source="vTuwC1mZ4MMaVHK7DtLy-14" target="vTuwC1mZ4MMaVHK7DtLy-56" edge="1">
          <mxGeometry relative="1" as="geometry" />
        </mxCell>
        <mxCell id="vTuwC1mZ4MMaVHK7DtLy-67" style="edgeStyle=orthogonalEdgeStyle;rounded=1;orthogonalLoop=1;jettySize=auto;html=1;exitX=1;exitY=0.5;exitDx=0;exitDy=0;entryX=0;entryY=0.5;entryDx=0;entryDy=0;strokeWidth=2;endArrow=classic;endFill=1;startArrow=oval;startFill=0;" parent="vTuwC1mZ4MMaVHK7DtLy-5" source="vTuwC1mZ4MMaVHK7DtLy-45" target="vTuwC1mZ4MMaVHK7DtLy-55" edge="1">
          <mxGeometry relative="1" as="geometry" />
        </mxCell>
        <mxCell id="vTuwC1mZ4MMaVHK7DtLy-68" style="edgeStyle=orthogonalEdgeStyle;rounded=1;orthogonalLoop=1;jettySize=auto;html=1;exitX=1;exitY=0.5;exitDx=0;exitDy=0;entryX=0.5;entryY=1;entryDx=0;entryDy=0;strokeWidth=2;endArrow=classic;endFill=1;startArrow=oval;startFill=0;" parent="vTuwC1mZ4MMaVHK7DtLy-5" source="vTuwC1mZ4MMaVHK7DtLy-46" target="vTuwC1mZ4MMaVHK7DtLy-55" edge="1">
          <mxGeometry relative="1" as="geometry">
            <Array as="points">
              <mxPoint x="500" y="380" />
            </Array>
          </mxGeometry>
        </mxCell>
      </root>
    </mxGraphModel>
  </diagram>
</mxfile>
